<svg xmlns="http://www.w3.org/2000/svg">
    <symbol id="icon-menu" viewBox="0 0 48 48" fill="none">
        <path fill-rule="evenodd" clip-rule="evenodd"
            d="M32 32H16C15.448 32 15 31.553 15 31C15 30.447 15.448 30 16 30H32C32.552 30 33 30.447 33 31C33 31.553 32.552 32 32 32Z"
            fill="white" />
        <path fill-rule="evenodd" clip-rule="evenodd"
            d="M32 18H16C15.448 18 15 17.553 15 17C15 16.447 15.448 16 16 16H32C32.552 16 33 16.447 33 17C33 17.553 32.552 18 32 18Z"
            fill="white" />
        <path fill-rule="evenodd" clip-rule="evenodd"
            d="M32 25H16C15.448 25 15 24.553 15 24C15 23.447 15.448 23 16 23H32C32.552 23 33 23.447 33 24C33 24.553 32.552 25 32 25Z"
            fill="white" />

    </symbol>
    <symbol id="icon-close" viewBox="0 0 48 48" fill="none">
        <path fill-rule="evenodd" clip-rule="evenodd"
            d="M27.7062 21.6295L21.8535 27.4821L20.7928 26.4215L26.6455 20.5688L27.7062 21.6295Z" fill="#52525B" />
        <path fill-rule="evenodd" clip-rule="evenodd"
            d="M21.8497 20.5669L27.7063 26.4246L26.6455 27.4852L20.7889 21.6274L21.8497 20.5669Z" fill="#52525B" />
        <path fill-rule="evenodd" clip-rule="evenodd"
            d="M14.25 24.0347C14.25 18.5118 18.7271 14.0347 24.25 14.0347C29.7728 14.0347 34.25 18.5118 34.25 24.0347C34.25 29.5575 29.7728 34.0347 24.25 34.0347C18.7271 34.0347 14.25 29.5575 14.25 24.0347ZM24.25 15.5347C19.5556 15.5347 15.75 19.3402 15.75 24.0347C15.75 28.7291 19.5556 32.5347 24.25 32.5347C28.9444 32.5347 32.75 28.7291 32.75 24.0347C32.75 19.3402 28.9444 15.5347 24.25 15.5347Z"
            fill="#52525B" />

    </symbol>
    <symbol id="icon-telegram" viewBox="0 0 26 26" fill="none">
        <path fill-rule="evenodd" clip-rule="evenodd"
            d="M13.5721 17.9706L11.1759 20.1972C10.8826 20.4707 10.4053 20.2461 10.4323 19.8457C10.5072 18.7142 10.6237 16.9951 10.7017 16.0393C10.7142 15.8885 10.841 15.72 10.9617 15.6108C13.7603 13.0732 16.5652 10.5419 19.3691 8.00842C19.4731 7.91482 19.5958 7.68394 19.5313 7.56226C19.4585 7.42498 19.1226 7.46658 18.9832 7.55394C15.4223 9.79618 11.8613 12.0374 8.30551 14.2869C8.08711 14.4242 7.81983 14.4575 7.57439 14.3784C6.10799 13.9073 4.63327 13.4611 3.16375 12.9973C2.82575 12.8902 2.42431 12.7841 2.38583 12.365C2.34527 11.9271 2.72071 11.7191 3.05975 11.5829C4.42631 11.0317 5.80223 10.5044 7.17607 9.97402C12.1182 8.06978 17.0603 6.16658 22.0023 4.26338C22.1677 4.19994 22.3882 4.16042 22.5608 4.1261C23.0787 4.0221 23.5447 4.2821 23.5956 4.80626C23.6341 5.19002 23.5665 5.61746 23.4864 5.99706C22.4568 10.8944 21.4137 15.7897 20.3716 20.686C20.0908 22.0089 19.4107 22.2595 18.3155 21.4515C16.9043 20.4094 13.5721 17.9706 13.5721 17.9706Z"
            fill="white" />


    </symbol>
    <symbol id="icon-linkedin" viewBox="0 0 26 26" fill="none">
        <path fill-rule="evenodd" clip-rule="evenodd"
            d="M18.18 16.4315C18.18 16.8621 17.8306 17.2115 17.4 17.2115C16.9695 17.2115 16.62 16.8621 16.62 16.4315V12.8851C16.62 11.8409 15.7735 10.9923 14.7324 10.9923C13.6914 10.9923 12.8448 11.8409 12.8448 12.8851V16.4315C12.8448 16.8621 12.4954 17.2115 12.0648 17.2115C11.6343 17.2115 11.2848 16.8621 11.2848 16.4315V12.8851C11.2848 10.9809 12.8313 9.43228 14.7324 9.43228C16.6336 9.43228 18.18 10.9809 18.18 12.8851V16.4315ZM8.611 10.4099C8.18044 10.4099 7.79356 10.0188 7.79356 9.58828C7.79356 9.15772 8.18044 8.76668 8.611 8.76668C9.04156 8.76668 9.42636 9.15772 9.42636 9.58828C9.42636 10.0188 9.04156 10.4099 8.611 10.4099ZM9.38996 16.4315C9.38996 16.8621 9.04052 17.2115 8.60996 17.2115C8.1794 17.2115 7.82996 16.8621 7.82996 16.4315V12.5097C7.82996 12.0791 8.1794 11.7297 8.60996 11.7297C9.04052 11.7297 9.38996 12.0791 9.38996 12.5097V16.4315ZM17.3907 3.12988H8.61932C5.33292 3.12988 3.125 5.4418 3.125 8.88108V17.1387C3.125 20.578 5.33292 22.8899 8.61932 22.8899H17.3896C20.676 22.8899 22.885 20.578 22.885 17.1387V8.88108C22.885 5.4418 20.6771 3.12988 17.3907 3.12988Z"
            fill="white" />

    </symbol>
    <symbol id="icon-twitter" viewBox="0 0 26 26" fill="none">
        <path fill-rule="evenodd" clip-rule="evenodd"
            d="M22.8039 5.89202C22.6937 5.71938 22.494 5.62266 22.2881 5.65698L20.2049 5.9669C19.6173 5.30962 17.8181 3.63315 15.3357 4.38402C13.186 5.04338 12.1626 7.3293 12.1013 9.07442C9.43572 8.58562 6.94804 7.27314 5.04276 5.33874C4.90652 5.20042 4.70372 5.14946 4.51652 5.2077C4.32932 5.26594 4.19204 5.42402 4.1598 5.61642C3.2082 11.2771 4.43748 15.0554 8.02548 17.4266C6.69324 18.1609 5.16548 18.5384 3.66164 18.4843C3.45572 18.4833 3.26748 18.5925 3.17804 18.7766C3.08756 18.9596 3.1146 19.179 3.24564 19.3371C4.78692 21.1904 7.6906 21.8258 10.0046 21.8258C10.2719 21.8258 10.5308 21.8175 10.7794 21.8019C14.149 21.5918 16.9269 20.2003 18.8124 17.7761C20.5981 15.4808 21.4623 12.3265 21.2449 8.86851L21.2387 8.81754L22.7987 6.45778C22.9121 6.28722 22.9141 6.06466 22.8039 5.89202Z"
            fill="white" />
    </symbol>
    <symbol id="icon-instagram" viewBox="0 0 26 26" fill="none">
        <path fill-rule="evenodd" clip-rule="evenodd"
            d="M12.8397 10.4912C11.261 10.4912 9.97656 11.7735 9.97656 13.3512C9.97656 14.9289 11.261 16.2112 12.8397 16.2112C14.4185 16.2112 15.7018 14.9289 15.7018 13.3512C15.7018 11.7735 14.4185 10.4912 12.8397 10.4912Z"
            fill="white" />
        <path fill-rule="evenodd" clip-rule="evenodd"
            d="M18.0636 9.27524C17.4708 9.27524 16.9872 8.79476 16.9872 8.20508C16.9872 7.61332 17.4708 7.13284 18.0636 7.13284C18.6564 7.13284 19.1389 7.61332 19.1389 8.20508C19.1389 8.79476 18.6564 9.27524 18.0636 9.27524ZM12.8428 17.7731C10.405 17.7731 8.42068 15.7909 8.42068 13.3531C8.42068 10.9153 10.405 8.93308 12.8428 8.93308C15.2816 8.93308 17.2648 10.9153 17.2648 13.3531C17.2648 15.7909 15.2816 17.7731 12.8428 17.7731ZM17.3907 3.12988H8.61828C5.33292 3.12988 3.125 5.44076 3.125 8.88108V17.1387C3.125 20.578 5.33292 22.8899 8.61828 22.8899H17.3896C20.676 22.8899 22.885 20.578 22.885 17.1387V8.88108C22.885 5.44076 20.6771 3.12988 17.3907 3.12988Z"
            fill="white" />

    </symbol>
    <symbol id="icon-whatsapp" viewBox="0 0 49 49" fill="none">
        <path fill-rule="evenodd" clip-rule="evenodd"
            d="M26.7191 26.739L26.6075 26.662C26.3811 26.5039 26.068 26.5245 25.8806 26.7108L25.6293 26.9643C25.3671 27.2308 24.9544 27.2817 24.6326 27.0889C23.3846 26.337 22.7617 25.6112 21.9828 24.4531C21.7694 24.1346 21.8073 23.7089 22.0749 23.4337L22.3273 23.1737C22.5255 22.9711 22.5494 22.6689 22.3879 22.4338C22.2157 22.1933 22.0478 21.9517 21.8874 21.7209C21.7943 21.5888 21.6415 21.5021 21.4736 21.488C21.4595 21.4869 21.4433 21.4858 21.4249 21.4858C21.323 21.4858 21.167 21.514 21.0327 21.6494L20.8973 21.7859L20.894 21.7892C19.7435 22.943 20.9861 25.0078 22.5331 26.5559C24.0606 28.078 26.1059 29.3 27.2564 28.1473L27.4157 27.9978C27.5554 27.8559 27.5652 27.6663 27.5565 27.5688C27.5479 27.4702 27.5056 27.2871 27.3204 27.1582C27.121 27.0152 26.9249 26.8809 26.7191 26.739Z"
            fill="#ffffff"></path>
        <path fill-rule="evenodd" clip-rule="evenodd"
            d="M28.5451 29.1662L28.3848 29.3179C27.7565 29.943 26.997 30.2517 26.151 30.2517C24.734 30.2517 23.0743 29.3894 21.3854 27.7059C18.703 25.0236 18.0736 22.3174 19.7409 20.6436L19.8785 20.5049C20.3389 20.0434 20.9802 19.8094 21.6129 19.869C22.2607 19.9254 22.8457 20.2612 23.2195 20.792C23.3776 21.0206 23.5423 21.2557 23.7178 21.5005C24.2638 22.2914 24.2389 23.3217 23.695 24.0681C24.084 24.5978 24.4458 24.9889 24.9615 25.3627C25.7111 24.8026 26.7457 24.7787 27.5333 25.3269L27.6405 25.3995C27.8561 25.549 28.062 25.6898 28.2591 25.8328C28.7802 26.1947 29.1171 26.7775 29.1756 27.4232C29.2341 28.071 29.0034 28.7058 28.5451 29.1662ZM34.1091 23.0877C33.3378 18.985 30.0618 15.7101 25.9592 14.9409C22.9118 14.3679 19.8124 15.1674 17.4485 17.1282C15.0717 19.0999 13.71 21.9869 13.71 25.0507C13.71 26.5912 14.061 28.1219 14.7521 29.5963C14.8085 29.7242 14.8258 29.8531 14.7998 29.9722C14.6308 30.7403 14.2765 32.2862 14.0209 33.3912C13.9136 33.8582 14.0545 34.3348 14.3946 34.6652C14.7315 34.9924 15.2082 35.1213 15.6632 35.0011C16.6935 34.7411 18.105 34.3955 18.9912 34.1886C19.1071 34.1615 19.235 34.1777 19.3682 34.2438C20.7971 34.9632 22.3994 35.3423 24.0016 35.3423C27.0631 35.3423 29.9491 33.9806 31.9186 31.607C33.8827 29.2421 34.68 26.1362 34.1091 23.0877Z"
            fill="#ffffff"></path>
    </symbol>
    <symbol id="icon-3person" viewBox="0 0 48 48" fill="none">
        <path fill-rule="evenodd" clip-rule="evenodd"
            d="M46.6932 33.1378C45.2332 28.5658 41.3632 25.9498 36.0532 25.9498H36.0152C33.8512 25.9298 31.9172 26.3658 30.2852 27.1998C34.8392 28.6618 38.2152 31.9058 39.7692 36.4958C42.2352 36.1538 44.3792 35.3958 46.2752 34.2378L46.9012 33.8398L46.6932 33.1378Z"
            fill="white" />
        <path fill-rule="evenodd" clip-rule="evenodd"
            d="M32.5811 22.4977C33.6051 23.0677 34.7631 23.3897 36.0151 23.3897C39.9411 23.3897 43.1271 20.2017 43.1271 16.2756C43.1271 12.3696 39.9411 9.18164 36.0151 9.18164C35.2371 9.18164 34.4971 9.31564 33.7951 9.54164C34.8191 11.1936 35.4071 13.1456 35.4071 15.2136C35.4071 18.0216 34.3631 20.5637 32.5811 22.4977Z"
            fill="white" />
        <path fill-rule="evenodd" clip-rule="evenodd"
            d="M18.6206 27.163C17.0266 26.367 15.1486 25.949 13.0246 25.949H12.9486C7.63863 25.949 3.76863 28.567 2.32663 33.137L2.09863 33.839L2.72463 34.237C4.52663 35.339 6.65263 36.077 9.02263 36.457C10.5966 31.849 14.0306 28.585 18.6206 27.163Z"
            fill="white" />
        <path fill-rule="evenodd" clip-rule="evenodd"
            d="M12.987 23.3877C14.239 23.3877 15.395 23.0657 16.421 22.4957C14.637 20.5617 13.593 18.0197 13.593 15.2117C13.593 13.1457 14.181 11.1917 15.207 9.54169C14.505 9.31369 13.765 9.17969 12.987 9.17969C9.06105 9.17969 5.87305 12.3677 5.87305 16.2737C5.87305 20.2017 9.06105 23.3877 12.987 23.3877Z"
            fill="white" />
        <path fill-rule="evenodd" clip-rule="evenodd"
            d="M24.432 28.2068C24.4 28.2068 24.37 28.2068 24.34 28.2068C17.512 28.2068 12.534 31.5628 10.682 37.4208L10.458 38.1288L11.092 38.5168C14.708 40.7208 19.028 41.7928 24.298 41.7928H24.468C29.742 41.7928 34.064 40.7208 37.68 38.5168L38.316 38.1288L38.092 37.4208C36.238 31.5628 31.262 28.2068 24.432 28.2068Z"
            fill="white" />
        <path fill-rule="evenodd" clip-rule="evenodd"
            d="M24.5004 24.2372C29.4724 24.2372 33.5164 20.1932 33.5164 15.2212C33.5164 10.2512 29.4724 6.20715 24.5004 6.20715C19.5284 6.20715 15.4844 10.2512 15.4844 15.2212C15.4844 20.1932 19.5284 24.2372 24.5004 24.2372Z"
            fill="white" />
    </symbol>
    <symbol id="icon-diamond" viewBox="0 0 48 48" fill="none">
        <path fill-rule="evenodd" clip-rule="evenodd"
            d="M34.2186 22.0038H13.7867C12.9587 22.0038 12.2867 21.3318 12.2867 20.5038C12.2867 19.6757 12.9587 19.0037 13.7867 19.0037H34.2186C35.0466 19.0037 35.7186 19.6757 35.7186 20.5038C35.7186 21.3318 35.0466 22.0038 34.2186 22.0038ZM42.1466 17.6397L36.2626 9.00375C35.3486 7.65175 33.8286 6.84375 32.1946 6.84375H15.8207C14.1887 6.84375 12.6707 7.65173 11.7567 8.99973L5.85667 17.6397C4.56867 19.5277 4.74267 22.0278 6.28067 23.7158L20.8926 39.7758C21.6866 40.6518 22.8186 41.1538 23.9986 41.1538C25.1786 41.1538 26.3126 40.6518 27.1046 39.7758L41.7186 23.7178C43.2566 22.0318 43.4326 19.5317 42.1466 17.6397Z"
            fill="white" />
    </symbol>
    <symbol id="icon-blade" viewBox="0 0 48 48" fill="none">
        <path fill-rule="evenodd" clip-rule="evenodd"
            d="M29.698 21.8592H18.302C17.474 21.8592 16.802 21.1872 16.802 20.3592C16.802 19.5312 17.474 18.8592 18.302 18.8592H29.698C30.526 18.8592 31.198 19.5312 31.198 20.3592C31.198 21.1872 30.526 21.8592 29.698 21.8592ZM29.698 29.1392H18.302C17.474 29.1392 16.802 28.4672 16.802 27.6392C16.802 26.8112 17.474 26.1392 18.302 26.1392H29.698C30.526 26.1392 31.198 26.8112 31.198 27.6392C31.198 28.4672 30.526 29.1392 29.698 29.1392ZM41.022 14.6332C39.632 14.6332 38.5 13.5032 38.5 12.1132V11.9032C38.5 10.7792 37.588 9.86719 36.466 9.86719H11.536C10.412 9.86719 9.5 10.7792 9.5 11.9032V12.1132C9.5 13.5032 8.37 14.6332 6.98 14.6332C5.888 14.6332 5 15.5212 5 16.6132V31.3912C5 32.4812 5.888 33.3692 6.98 33.3692C8.37 33.3692 9.5 34.4992 9.5 35.8912V36.1012C9.5 37.2232 10.412 38.1372 11.536 38.1372H36.466C37.588 38.1372 38.5 37.2232 38.5 36.1012V35.8912C38.5 34.4992 39.632 33.3692 41.022 33.3692C42.114 33.3692 43 32.4812 43 31.3912V16.6132C43 15.5212 42.114 14.6332 41.022 14.6332Z"
            fill="white" />
        <path fill-rule="evenodd" clip-rule="evenodd"
            d="M29.698 21.8592H18.302C17.474 21.8592 16.802 21.1872 16.802 20.3592C16.802 19.5312 17.474 18.8592 18.302 18.8592H29.698C30.526 18.8592 31.198 19.5312 31.198 20.3592C31.198 21.1872 30.526 21.8592 29.698 21.8592ZM29.698 29.1392H18.302C17.474 29.1392 16.802 28.4672 16.802 27.6392C16.802 26.8112 17.474 26.1392 18.302 26.1392H29.698C30.526 26.1392 31.198 26.8112 31.198 27.6392C31.198 28.4672 30.526 29.1392 29.698 29.1392ZM41.022 14.6332C39.632 14.6332 38.5 13.5032 38.5 12.1132V11.9032C38.5 10.7792 37.588 9.86719 36.466 9.86719H11.536C10.412 9.86719 9.5 10.7792 9.5 11.9032V12.1132C9.5 13.5032 8.37 14.6332 6.98 14.6332C5.888 14.6332 5 15.5212 5 16.6132V31.3912C5 32.4812 5.888 33.3692 6.98 33.3692C8.37 33.3692 9.5 34.4992 9.5 35.8912V36.1012C9.5 37.2232 10.412 38.1372 11.536 38.1372H36.466C37.588 38.1372 38.5 37.2232 38.5 36.1012V35.8912C38.5 34.4992 39.632 33.3692 41.022 33.3692C42.114 33.3692 43 32.4812 43 31.3912V16.6132C43 15.5212 42.114 14.6332 41.022 14.6332Z"
            fill="white" />

    </symbol>
    <symbol id="icon-ticket" viewBox="0 0 48 48" fill="none">
        <path fill-rule="evenodd" clip-rule="evenodd"
            d="M31.976 26.7062C31.976 27.5342 31.304 28.2062 30.476 28.2062C29.648 28.2062 28.976 27.5342 28.976 26.7062V21.2882C28.976 20.4602 29.648 19.7882 30.476 19.7882C31.304 19.7882 31.976 20.4602 31.976 21.2882V26.7062ZM24.486 24.2502L22.99 25.6902L23.346 27.7202C23.49 28.6442 22.87 29.5022 21.962 29.6522C21.604 29.7062 21.23 29.6482 20.91 29.4802L19.052 28.5162L17.184 29.4842C16.946 29.6102 16.682 29.6742 16.414 29.6742C16.248 29.6742 16.082 29.6522 15.92 29.6002C15.49 29.4702 15.138 29.1782 14.928 28.7822C14.758 28.4642 14.696 28.0862 14.756 27.7262L15.11 25.6902L13.61 24.2482C13.29 23.9422 13.108 23.5262 13.1 23.0822C13.092 22.6362 13.258 22.2122 13.568 21.8922C13.82 21.6282 14.17 21.4502 14.548 21.4002L16.62 21.1002L17.554 19.2423C17.764 18.8323 18.114 18.5382 18.544 18.4023C18.972 18.2663 19.424 18.3062 19.822 18.5103C20.142 18.6783 20.388 18.9263 20.546 19.2323L21.48 21.0982L23.562 21.4002C23.988 21.4542 24.382 21.6782 24.654 22.0322C24.926 22.3862 25.044 22.8262 24.986 23.2682C24.934 23.6482 24.758 23.9942 24.486 24.2502ZM41.122 21.8162C42.714 20.5522 43.056 20.2782 43.208 20.1122L43.352 19.9583C43.756 19.5282 43.85 19.3343 43.934 18.7483L43.964 18.5483C43.992 18.3663 44 18.0723 44 17.4843V16.5843C44 15.4383 44 14.8622 43.916 14.3302C43.446 11.3082 41.1 8.96225 37.974 8.47427C37.592 8.41227 37.592 8.40625 36.466 8.40625C36.148 8.40625 35.99 8.40825 35.84 8.41625C34.846 8.48625 33.904 8.84425 33.128 9.44625C33.014 9.53225 32.902 9.62827 32.632 9.86627C32.32 10.1463 32.14 10.3042 31.976 10.4302V15.9363C31.976 16.7642 31.304 17.4362 30.476 17.4362C29.648 17.4362 28.976 16.7642 28.976 15.9363V10.7762C28.81 10.7042 28.638 10.6463 28.482 10.5422C28.284 10.4102 28.082 10.2222 27.588 9.78227C27.406 9.62025 27.3 9.52825 27.198 9.45227C26.412 8.84427 25.472 8.48625 24.48 8.41625C24.326 8.40825 24.17 8.40625 23.854 8.40625H13.082C11.062 8.40625 10.05 8.40625 9.128 8.66227C6.778 9.31625 4.912 11.1823 4.26 13.5363C4.006 14.4602 4.006 15.4722 4.008 17.4882C4.008 18.0743 4.016 18.3663 4.046 18.5483L4.076 18.7542C4.162 19.3342 4.254 19.5262 4.656 19.9543L4.79 20.0982C4.936 20.2602 5.188 20.4702 6.874 21.8122C7.548 22.3502 7.918 23.1282 7.92 24.0782C7.892 24.8662 7.528 25.6102 6.926 26.1182L6.642 26.3562C5.106 27.6482 4.878 27.8422 4.75 27.9902L4.578 28.1802C4.226 28.5642 4.136 28.7562 4.07 29.2702L4.034 29.5262C4.008 29.7002 4 29.9842 4 30.5482C4 32.5402 4 33.5402 4.25 34.4502C4.902 36.8182 6.778 38.6922 9.146 39.3462C10.058 39.5942 11.058 39.5942 13.048 39.5942H23.854C24.17 39.5942 24.326 39.5922 24.476 39.5822C25.468 39.5162 26.41 39.1602 27.19 38.5542C27.3 38.4722 27.406 38.3802 27.672 38.1442C28.08 37.7802 28.28 37.5922 28.486 37.4582C28.64 37.3542 28.81 37.2982 28.976 37.2262V32.1082C28.976 31.2802 29.648 30.6082 30.476 30.6082C31.304 30.6082 31.976 31.2802 31.976 32.1082V37.5702C32.142 37.6962 32.33 37.8622 32.704 38.1962C32.902 38.3722 33.014 38.4682 33.118 38.5482C33.908 39.1602 34.85 39.5162 35.838 39.5822C35.99 39.5922 36.148 39.5942 36.464 39.5942C37.594 39.5942 37.594 39.5882 38.074 39.5102C41.098 39.0442 43.446 36.6962 43.916 33.6722C44.002 33.1322 44 32.5202 43.998 31.4142V30.5162C43.998 29.9282 43.99 29.6362 43.962 29.4562L43.932 29.2482C43.848 28.6662 43.756 28.4762 43.354 28.0482L43.212 27.8942C43.068 27.7382 42.796 27.5122 41.126 26.1822C40.45 25.6422 40.078 24.8662 40.078 23.9962C40.078 23.1262 40.45 22.3502 41.122 21.8162Z"
            fill="white" />
        <path fill-rule="evenodd" clip-rule="evenodd"
            d="M31.976 26.7062C31.976 27.5342 31.304 28.2062 30.476 28.2062C29.648 28.2062 28.976 27.5342 28.976 26.7062V21.2882C28.976 20.4602 29.648 19.7882 30.476 19.7882C31.304 19.7882 31.976 20.4602 31.976 21.2882V26.7062ZM24.486 24.2502L22.99 25.6902L23.346 27.7202C23.49 28.6442 22.87 29.5022 21.962 29.6522C21.604 29.7062 21.23 29.6482 20.91 29.4802L19.052 28.5162L17.184 29.4842C16.946 29.6102 16.682 29.6742 16.414 29.6742C16.248 29.6742 16.082 29.6522 15.92 29.6002C15.49 29.4702 15.138 29.1782 14.928 28.7822C14.758 28.4642 14.696 28.0862 14.756 27.7262L15.11 25.6902L13.61 24.2482C13.29 23.9422 13.108 23.5262 13.1 23.0822C13.092 22.6362 13.258 22.2122 13.568 21.8922C13.82 21.6282 14.17 21.4502 14.548 21.4002L16.62 21.1002L17.554 19.2423C17.764 18.8323 18.114 18.5382 18.544 18.4023C18.972 18.2663 19.424 18.3062 19.822 18.5103C20.142 18.6783 20.388 18.9263 20.546 19.2323L21.48 21.0982L23.562 21.4002C23.988 21.4542 24.382 21.6782 24.654 22.0322C24.926 22.3862 25.044 22.8262 24.986 23.2682C24.934 23.6482 24.758 23.9942 24.486 24.2502ZM41.122 21.8162C42.714 20.5522 43.056 20.2782 43.208 20.1122L43.352 19.9583C43.756 19.5282 43.85 19.3343 43.934 18.7483L43.964 18.5483C43.992 18.3663 44 18.0723 44 17.4843V16.5843C44 15.4383 44 14.8622 43.916 14.3302C43.446 11.3082 41.1 8.96225 37.974 8.47427C37.592 8.41227 37.592 8.40625 36.466 8.40625C36.148 8.40625 35.99 8.40825 35.84 8.41625C34.846 8.48625 33.904 8.84425 33.128 9.44625C33.014 9.53225 32.902 9.62827 32.632 9.86627C32.32 10.1463 32.14 10.3042 31.976 10.4302V15.9363C31.976 16.7642 31.304 17.4362 30.476 17.4362C29.648 17.4362 28.976 16.7642 28.976 15.9363V10.7762C28.81 10.7042 28.638 10.6463 28.482 10.5422C28.284 10.4102 28.082 10.2222 27.588 9.78227C27.406 9.62025 27.3 9.52825 27.198 9.45227C26.412 8.84427 25.472 8.48625 24.48 8.41625C24.326 8.40825 24.17 8.40625 23.854 8.40625H13.082C11.062 8.40625 10.05 8.40625 9.128 8.66227C6.778 9.31625 4.912 11.1823 4.26 13.5363C4.006 14.4602 4.006 15.4722 4.008 17.4882C4.008 18.0743 4.016 18.3663 4.046 18.5483L4.076 18.7542C4.162 19.3342 4.254 19.5262 4.656 19.9543L4.79 20.0982C4.936 20.2602 5.188 20.4702 6.874 21.8122C7.548 22.3502 7.918 23.1282 7.92 24.0782C7.892 24.8662 7.528 25.6102 6.926 26.1182L6.642 26.3562C5.106 27.6482 4.878 27.8422 4.75 27.9902L4.578 28.1802C4.226 28.5642 4.136 28.7562 4.07 29.2702L4.034 29.5262C4.008 29.7002 4 29.9842 4 30.5482C4 32.5402 4 33.5402 4.25 34.4502C4.902 36.8182 6.778 38.6922 9.146 39.3462C10.058 39.5942 11.058 39.5942 13.048 39.5942H23.854C24.17 39.5942 24.326 39.5922 24.476 39.5822C25.468 39.5162 26.41 39.1602 27.19 38.5542C27.3 38.4722 27.406 38.3802 27.672 38.1442C28.08 37.7802 28.28 37.5922 28.486 37.4582C28.64 37.3542 28.81 37.2982 28.976 37.2262V32.1082C28.976 31.2802 29.648 30.6082 30.476 30.6082C31.304 30.6082 31.976 31.2802 31.976 32.1082V37.5702C32.142 37.6962 32.33 37.8622 32.704 38.1962C32.902 38.3722 33.014 38.4682 33.118 38.5482C33.908 39.1602 34.85 39.5162 35.838 39.5822C35.99 39.5922 36.148 39.5942 36.464 39.5942C37.594 39.5942 37.594 39.5882 38.074 39.5102C41.098 39.0442 43.446 36.6962 43.916 33.6722C44.002 33.1322 44 32.5202 43.998 31.4142V30.5162C43.998 29.9282 43.99 29.6362 43.962 29.4562L43.932 29.2482C43.848 28.6662 43.756 28.4762 43.354 28.0482L43.212 27.8942C43.068 27.7382 42.796 27.5122 41.126 26.1822C40.45 25.6422 40.078 24.8662 40.078 23.9962C40.078 23.1262 40.45 22.3502 41.122 21.8162Z"
            fill="white" />
    </symbol>
    <symbol id="icon-card" viewBox="0 0 48 48" fill="none">
        <path fill-rule="evenodd" clip-rule="evenodd"
            d="M24.42 31.8397H21.564C20.736 31.8397 20.064 31.1677 20.064 30.3397C20.064 29.5117 20.736 28.8397 21.564 28.8397H24.42C25.248 28.8397 25.92 29.5117 25.92 30.3397C25.92 31.1677 25.248 31.8397 24.42 31.8397ZM16.652 31.8397H13.796C12.968 31.8397 12.296 31.1677 12.296 30.3397C12.296 29.5117 12.968 28.8397 13.796 28.8397H16.652C17.48 28.8397 18.152 29.5117 18.152 30.3397C18.152 31.1677 17.48 31.8397 16.652 31.8397ZM5.60195 21.1797C5.27057 21.1797 5.00195 21.4483 5.00195 21.7797V30.5797C5.00195 36.1657 8.58995 39.9197 13.928 39.9197H34.068C39.41 39.9197 42.998 36.1657 42.998 30.5797V21.7797C42.998 21.4483 42.7294 21.1797 42.398 21.1797H5.60195Z"
            fill="white" />
        <path fill-rule="evenodd" clip-rule="evenodd"
            d="M42.3984 18.1781C42.7298 18.1781 42.9984 17.9095 42.9984 17.5781V17.4181C42.9984 11.8321 39.4104 8.07812 34.0704 8.07812H13.9284C8.59044 8.07812 5.00244 11.8321 5.00244 17.4181V17.5781C5.00244 17.9095 5.27106 18.1781 5.60244 18.1781H42.3984Z"
            fill="white" />
    </symbol>
    <symbol id="icon-chevron-right" viewBox="0 0 48 48" fill="none">
        <path d="M31.1502 24H16.75" stroke="currentColor" stroke-width="1.5" stroke-linecap="square" />
        <path d="M25.7002 17.9746L31.7502 23.9986L25.7002 30.0236" stroke="currentColor" stroke-width="1.5"
            stroke-linecap="square" />
    </symbol>
    <symbol id="icon-chevron-left" viewBox="0 0 48 48" fill="none">
        <path d="M16.8498 24L31.25 24" stroke="#BBBED6" stroke-width="1.5" stroke-linecap="square" />
        <path d="M22.2998 30.0254L16.2498 24.0014L22.2998 17.9764" stroke="currentColor" stroke-width="1.5"
            stroke-linecap="square" />
    </symbol>
    <symbol id="icon-flight-ticket" viewBox="0 0 40 40" fill="none">
        <path fill-rule="evenodd" clip-rule="evenodd"
            d="M18.6485 24.0134C18.5087 24.0654 18.3641 24.0898 18.2227 24.0898C17.7287 24.0898 17.264 23.7876 17.0804 23.2984L16.029 20.4807L14.2106 23.6299L15.5236 24.3872C16.107 24.7236 16.3052 25.4694 15.9689 26.0512C15.743 26.4428 15.3335 26.6606 14.9126 26.6606C14.7063 26.6606 14.4966 26.6086 14.3049 26.4981L9.568 23.7632C8.98462 23.4268 8.78475 22.6809 9.12112 22.0976C9.4575 21.5142 10.2034 21.3143 10.7867 21.6523L12.0998 22.4112L13.9181 19.2619L10.9509 19.7592C10.2781 19.8616 9.659 19.4212 9.54688 18.7582C9.43638 18.0936 9.88325 17.4663 10.5479 17.3542L15.4976 16.5254L16.7716 14.3187C17.108 13.7354 17.8555 13.5355 18.4372 13.8735C19.0206 14.2099 19.2189 14.9541 18.8825 15.5375L17.6085 17.7442L19.3635 22.4453C19.5991 23.0758 19.279 23.7778 18.6485 24.0134ZM29.3443 23.7031C28.6715 23.7031 28.1255 23.1571 28.1255 22.4843C28.1255 21.8116 28.6715 21.2656 29.3443 21.2656H34.9375V17.7621H26.0699C25.3971 17.7621 24.8511 17.2161 24.8511 16.5433C24.8511 15.8706 25.3971 15.3246 26.0699 15.3246H34.9375V15.0809C34.9375 13.5615 34.9375 12.801 34.7896 12.1071C34.2404 9.54938 32.2319 7.54088 29.6741 6.99163C28.9835 6.84375 28.2197 6.84375 26.7004 6.84375C26.299 6.84375 26.0991 6.84863 25.9756 6.86488C25.259 6.97213 25.012 7.12163 24.5846 7.70338C24.5245 7.783 24.3441 8.10638 23.9428 8.862C23.5235 9.65338 22.7402 10.1246 21.8465 10.1246C20.8601 10.1246 20.0184 9.551 19.6479 8.62475C19.2985 7.7505 19.1392 7.35075 18.7671 7.09563C18.395 6.84375 18.0034 6.84375 17.3518 6.84375H16.5766C10.8436 6.84375 7.96575 6.84375 6.01412 8.79538C4.0625 10.747 4.0625 13.6233 4.0625 19.3562V19.6471C4.0625 25.3801 4.0625 28.2563 6.01412 30.2079C7.96575 32.1596 10.8436 32.1596 16.5766 32.1596H17.3501C18.0001 32.1596 18.3901 32.1596 18.7606 31.9093C19.1311 31.6607 19.292 31.2626 19.6446 30.3851C20.0119 29.4718 20.8764 28.8819 21.9164 28.8819C22.7516 28.9112 23.4959 29.3662 23.9167 30.1283C24.3295 30.8742 24.5424 31.2447 24.6009 31.3211C25.0478 31.9109 25.2541 32.0344 25.9756 32.1368C26.0877 32.1531 26.2957 32.1596 26.7101 32.1596C28.2214 32.1596 28.9786 32.1596 29.6644 32.0117C32.2319 31.4641 34.2436 29.4539 34.7929 26.8864C34.9375 26.1991 34.9375 25.4402 34.9375 23.9306V23.7031H29.3443Z"
            fill="white" />
        <path fill-rule="evenodd" clip-rule="evenodd"
            d="M18.6485 24.0134C18.5087 24.0654 18.3641 24.0898 18.2227 24.0898C17.7287 24.0898 17.264 23.7876 17.0804 23.2984L16.029 20.4807L14.2106 23.6299L15.5236 24.3872C16.107 24.7236 16.3052 25.4694 15.9689 26.0512C15.743 26.4428 15.3335 26.6606 14.9126 26.6606C14.7063 26.6606 14.4966 26.6086 14.3049 26.4981L9.568 23.7632C8.98462 23.4268 8.78475 22.6809 9.12112 22.0976C9.4575 21.5142 10.2034 21.3143 10.7867 21.6523L12.0998 22.4112L13.9181 19.2619L10.9509 19.7592C10.2781 19.8616 9.659 19.4212 9.54688 18.7582C9.43638 18.0936 9.88325 17.4663 10.5479 17.3542L15.4976 16.5254L16.7716 14.3187C17.108 13.7354 17.8555 13.5355 18.4372 13.8735C19.0206 14.2099 19.2189 14.9541 18.8825 15.5375L17.6085 17.7442L19.3635 22.4453C19.5991 23.0758 19.279 23.7778 18.6485 24.0134ZM29.3443 23.7031C28.6715 23.7031 28.1255 23.1571 28.1255 22.4843C28.1255 21.8116 28.6715 21.2656 29.3443 21.2656H34.9375V17.7621H26.0699C25.3971 17.7621 24.8511 17.2161 24.8511 16.5433C24.8511 15.8706 25.3971 15.3246 26.0699 15.3246H34.9375V15.0809C34.9375 13.5615 34.9375 12.801 34.7896 12.1071C34.2404 9.54938 32.2319 7.54088 29.6741 6.99163C28.9835 6.84375 28.2197 6.84375 26.7004 6.84375C26.299 6.84375 26.0991 6.84863 25.9756 6.86488C25.259 6.97213 25.012 7.12163 24.5846 7.70338C24.5245 7.783 24.3441 8.10638 23.9428 8.862C23.5235 9.65338 22.7402 10.1246 21.8465 10.1246C20.8601 10.1246 20.0184 9.551 19.6479 8.62475C19.2985 7.7505 19.1392 7.35075 18.7671 7.09563C18.395 6.84375 18.0034 6.84375 17.3518 6.84375H16.5766C10.8436 6.84375 7.96575 6.84375 6.01412 8.79538C4.0625 10.747 4.0625 13.6233 4.0625 19.3562V19.6471C4.0625 25.3801 4.0625 28.2563 6.01412 30.2079C7.96575 32.1596 10.8436 32.1596 16.5766 32.1596H17.3501C18.0001 32.1596 18.3901 32.1596 18.7606 31.9093C19.1311 31.6607 19.292 31.2626 19.6446 30.3851C20.0119 29.4718 20.8764 28.8819 21.9164 28.8819C22.7516 28.9112 23.4959 29.3662 23.9167 30.1283C24.3295 30.8742 24.5424 31.2447 24.6009 31.3211C25.0478 31.9109 25.2541 32.0344 25.9756 32.1368C26.0877 32.1531 26.2957 32.1596 26.7101 32.1596C28.2214 32.1596 28.9786 32.1596 29.6644 32.0117C32.2319 31.4641 34.2436 29.4539 34.7929 26.8864C34.9375 26.1991 34.9375 25.4402 34.9375 23.9306V23.7031H29.3443Z"
            fill="white" />
    </symbol>
    <symbol id="icon-calendar" viewBox="0 0 20 20" fill="none">
        <path d="M3.46631 8.05176H14.305" stroke="#A1A1AA" stroke-width="1.5" stroke-linecap="round"
            stroke-linejoin="round" />
        <path d="M13.1787 2.5V4.96812" stroke="#A1A1AA" stroke-width="1.5" stroke-linecap="round"
            stroke-linejoin="round" />
        <path d="M7.12012 2.5V4.96812" stroke="#A1A1AA" stroke-width="1.5" stroke-linecap="round"
            stroke-linejoin="round" />
        <path
            d="M13.3254 3.68506C15.5348 3.68506 16.9035 4.91182 16.897 7.16669V14.0116C16.897 16.2672 15.5283 17.5005 13.3189 17.5005H6.9751C4.77211 17.5005 3.39697 16.2454 3.39697 13.9548V7.16669C3.39697 5.72435 3.95962 4.70267 4.94168 4.15364"
            stroke="#A1A1AA" stroke-width="1.5" stroke-linecap="round" stroke-linejoin="round" />
        <path d="M7.12549 3.68506H11.0473" stroke="#A1A1AA" stroke-width="1.5" stroke-linecap="round"
            stroke-linejoin="round" />
        <path d="M6.78857 12.4741H6.79691" stroke="#A1A1AA" stroke-width="1.5" stroke-linecap="round"
            stroke-linejoin="round" />
        <path d="M10.1382 12.4741H10.1465" stroke="#A1A1AA" stroke-width="1.5" stroke-linecap="round"
            stroke-linejoin="round" />
        <path d="M13.48 12.4741H13.4883" stroke="#A1A1AA" stroke-width="1.5" stroke-linecap="round"
            stroke-linejoin="round" />
    </symbol>
    <symbol id="icon-search" viewBox="0 0 48 48" fill="none">
        <path fill-rule="evenodd" clip-rule="evenodd"
            d="M23.739 14C29.109 14 33.477 18.368 33.477 23.738C33.477 26.2715 32.5047 28.5823 30.9136 30.3165L34.0444 33.4407C34.3374 33.7337 34.3384 34.2077 34.0454 34.5007C33.8994 34.6487 33.7064 34.7217 33.5144 34.7217C33.3234 34.7217 33.1314 34.6487 32.9844 34.5027L29.8159 31.343C28.1491 32.6778 26.0357 33.477 23.739 33.477C18.369 33.477 14 29.108 14 23.738C14 18.368 18.369 14 23.739 14ZM23.739 15.5C19.196 15.5 15.5 19.195 15.5 23.738C15.5 28.281 19.196 31.977 23.739 31.977C28.281 31.977 31.977 28.281 31.977 23.738C31.977 19.195 28.281 15.5 23.739 15.5Z"
            fill="#484E8D" />
    </symbol>
    <symbol id="icon-clock" viewBox="0 0 24 24" fill="none">
        <path fill-rule="evenodd" clip-rule="evenodd"
            d="M12 2C17.514 2 22 6.486 22 12C22 17.514 17.514 22 12 22C6.486 22 2 17.514 2 12C2 6.486 6.486 2 12 2ZM12 3.5C7.313 3.5 3.5 7.313 3.5 12C3.5 16.687 7.313 20.5 12 20.5C16.687 20.5 20.5 16.687 20.5 12C20.5 7.313 16.687 3.5 12 3.5ZM11.6612 7.0954C12.0762 7.0954 12.4112 7.4314 12.4112 7.8454V12.2674L15.8162 14.2974C16.1712 14.5104 16.2882 14.9704 16.0762 15.3264C15.9352 15.5614 15.6862 15.6924 15.4312 15.6924C15.3002 15.6924 15.1682 15.6584 15.0472 15.5874L11.2772 13.3384C11.0512 13.2024 10.9112 12.9574 10.9112 12.6934V7.8454C10.9112 7.4314 11.2472 7.0954 11.6612 7.0954Z"
            fill="#8F94BA" />

    </symbol>
    <symbol id="icon-user" viewBox="0 0 24 24" fill="none">
        <path fill-rule="evenodd" clip-rule="evenodd"
            d="M12 3.75C7.44329 3.75 3.75 7.44329 3.75 12C3.75 16.5558 7.44335 20.25 12 20.25C16.5567 20.25 20.25 16.5558 20.25 12C20.25 7.44329 16.5567 3.75 12 3.75ZM2.25 12C2.25 6.61487 6.61487 2.25 12 2.25C17.3851 2.25 21.75 6.61487 21.75 12C21.75 17.3841 17.3852 21.75 12 21.75C6.61481 21.75 2.25 17.3841 2.25 12Z"
            fill="#8F94BA" />
        <path fill-rule="evenodd" clip-rule="evenodd"
            d="M8.63583 17.6968C7.98362 18.2071 7.67389 18.8617 7.5955 19.4702C7.54257 19.881 7.16663 20.1712 6.75581 20.1182C6.34499 20.0653 6.05487 19.6894 6.10779 19.2785C6.23372 18.3011 6.73156 17.2822 7.71151 16.5154C8.6897 15.7501 10.0934 15.2773 11.9695 15.2773C13.8638 15.2773 15.2763 15.752 16.2572 16.5241C17.2406 17.2982 17.7318 18.327 17.8513 19.3133C17.9012 19.7245 17.6082 20.0983 17.197 20.1481C16.7858 20.198 16.4121 19.905 16.3622 19.4938C16.2872 18.8747 15.9806 18.2154 15.3294 17.7027C14.6756 17.1881 13.6168 16.7773 11.9695 16.7773C10.3428 16.7773 9.28981 17.1851 8.63583 17.6968Z"
            fill="#8F94BA" />
        <path fill-rule="evenodd" clip-rule="evenodd"
            d="M11.9722 7.78125C10.5657 7.78125 9.42578 8.92078 9.42578 10.3267C9.42578 11.7326 10.5657 12.8722 11.9722 12.8722C13.3784 12.8722 14.5177 11.7329 14.5177 10.3267C14.5177 8.92049 13.3784 7.78125 11.9722 7.78125ZM7.92578 10.3267C7.92578 8.09178 9.73786 6.28125 11.9722 6.28125C14.2069 6.28125 16.0177 8.09206 16.0177 10.3267C16.0177 12.5614 14.2069 14.3722 11.9722 14.3722C9.73786 14.3722 7.92578 12.5616 7.92578 10.3267Z"
            fill="#8F94BA" />
    </symbol>
    <symbol id="icon-refresh" viewBox="0 0 48 48" fill="none">
        <path fill-rule="evenodd" clip-rule="evenodd"
            d="M22.9953 14.7626C23.2882 15.0555 23.2882 15.5304 22.9953 15.8233L21.0255 17.7931L22.9953 19.763C23.2882 20.0558 23.2882 20.5307 22.9953 20.8236C22.7024 21.1165 22.2276 21.1165 21.9347 20.8236L19.4345 18.3235C19.2939 18.1828 19.2148 17.992 19.2148 17.7931C19.2148 17.5942 19.2939 17.4034 19.4345 17.2628L21.9347 14.7626C22.2276 14.4697 22.7024 14.4697 22.9953 14.7626Z"
            fill="#666C9F" />
        <path fill-rule="evenodd" clip-rule="evenodd"
            d="M25.0048 27.1767C25.2977 26.8838 25.7726 26.8838 26.0655 27.1767L28.5656 29.6769C28.7063 29.8175 28.7853 30.0083 28.7853 30.2072C28.7853 30.4061 28.7063 30.5969 28.5656 30.7375L26.0655 33.2377C25.7726 33.5306 25.2977 33.5306 25.0048 33.2377C24.7119 32.9448 24.7119 32.4699 25.0048 32.177L26.9747 30.2072L25.0048 28.2374C24.7119 27.9445 24.7119 27.4696 25.0048 27.1767Z"
            fill="#666C9F" />
        <path fill-rule="evenodd" clip-rule="evenodd"
            d="M15 21.6992C15.4142 21.6992 15.75 22.035 15.75 22.4492V22.7602C15.75 26.4594 18.7485 29.4587 22.4485 29.4587H28.0348C28.4491 29.4587 28.7848 29.7945 28.7848 30.2087C28.7848 30.6229 28.4491 30.9587 28.0348 30.9587H22.4485C17.9199 30.9587 14.25 27.2877 14.25 22.7602V22.4492C14.25 22.035 14.5858 21.6992 15 21.6992Z"
            fill="#666C9F" />
        <path fill-rule="evenodd" clip-rule="evenodd"
            d="M19.2148 17.793C19.2148 17.3788 19.5506 17.043 19.9648 17.043H25.5512C30.0797 17.043 33.7497 20.714 33.7497 25.2414V25.5525C33.7497 25.9667 33.4139 26.3025 32.9997 26.3025C32.5855 26.3025 32.2497 25.9667 32.2497 25.5525V25.2414C32.2497 21.5423 29.2512 18.543 25.5512 18.543H19.9648C19.5506 18.543 19.2148 18.2072 19.2148 17.793Z"
            fill="#666C9F" />

    </symbol>
    <symbol id="icon-mouse" viewBox="0 0 48 48" fill="none">
        <path fill-rule="evenodd" clip-rule="evenodd"
            d="M16.5537 21.2973C16.5526 17.3627 19.9304 14.25 23.9997 14.25C28.0661 14.25 31.4436 17.3606 31.4447 21.2949C31.4447 21.2949 31.4447 21.2949 31.4447 21.2949L31.4467 26.7026C31.4467 30.637 28.0691 33.75 24.0007 33.75C19.9336 33.75 16.5558 30.6396 16.5557 26.7061C16.5557 26.706 16.5557 26.7062 16.5557 26.7061L16.5537 21.2973ZM18.0537 21.2969C18.0537 21.2969 18.0537 21.2969 18.0537 21.2969L18.0557 26.7056C18.0557 29.7248 20.6733 32.25 24.0007 32.25C27.3287 32.25 29.9465 29.7236 29.9467 26.7032C29.9467 26.7031 29.9467 26.7033 29.9467 26.7032L29.9447 21.2954C29.9439 18.2748 27.326 15.75 23.9997 15.75C20.6706 15.75 18.0529 18.2767 18.0537 21.2969Z"
            fill="#2458DE" />
        <path fill-rule="evenodd" clip-rule="evenodd"
            d="M24.002 18.9219C24.4162 18.9219 24.752 19.2577 24.752 19.6719V21.6947C24.752 22.1089 24.4162 22.4447 24.002 22.4447C23.5877 22.4447 23.252 22.1089 23.252 21.6947V19.6719C23.252 19.2577 23.5877 18.9219 24.002 18.9219Z"
            fill="#2458DE" />
    </symbol>
    <symbol id="icon-share" viewBox="0 0 48 48" fill="none">
            <path
                d="M26.8782 19.5946C27.4432 20.0954 28.186 20.4 28.9988 20.4C30.7638 20.4 32.1988 18.964 32.1988 17.2C32.1988 15.436 30.7638 14 28.9988 14C27.2338 14 25.7988 15.436 25.7988 17.2C25.7988 17.4288 25.823 17.652 25.8688 17.8674L20.3196 21.1043C19.7548 20.604 19.0124 20.2998 18.2 20.2998C16.435 20.2998 15 21.7358 15 23.4998C15 25.2638 16.435 26.6988 18.2 26.6988C19.0128 26.6988 19.7556 26.3945 20.3205 25.8939L25.8698 29.1284C25.8233 29.3451 25.7988 29.5698 25.7988 29.8001C25.7988 31.5641 27.2338 33.0001 28.9988 33.0001C30.7638 33.0001 32.1988 31.5641 32.1988 29.8001C32.1988 28.0361 30.7638 26.6001 28.9988 26.6001C28.1874 26.6001 27.4457 26.9036 26.8811 27.403L21.3301 24.1668C21.3759 23.9516 21.4 23.7284 21.4 23.4998C21.4 23.2705 21.3758 23.0468 21.3297 22.8311L26.8782 19.5946Z"
                fill="white" />

    </symbol>
</svg>