<svg xmlns="http://www.w3.org/2000/svg">
    <symbol id="icon-menu" viewBox="0 0 48 48" fill="none">
<path fill-rule="evenodd" clip-rule="evenodd" d="M32 32H16C15.448 32 15 31.553 15 31C15 30.447 15.448 30 16 30H32C32.552 30 33 30.447 33 31C33 31.553 32.552 32 32 32Z" fill="white"/>
<path fill-rule="evenodd" clip-rule="evenodd" d="M32 18H16C15.448 18 15 17.553 15 17C15 16.447 15.448 16 16 16H32C32.552 16 33 16.447 33 17C33 17.553 32.552 18 32 18Z" fill="white"/>
<path fill-rule="evenodd" clip-rule="evenodd" d="M32 25H16C15.448 25 15 24.553 15 24C15 23.447 15.448 23 16 23H32C32.552 23 33 23.447 33 24C33 24.553 32.552 25 32 25Z" fill="white"/>

    </symbol>
    <symbol id="icon-close" viewBox="0 0 48 48" fill="none">
<path fill-rule="evenodd" clip-rule="evenodd" d="M27.7062 21.6295L21.8535 27.4821L20.7928 26.4215L26.6455 20.5688L27.7062 21.6295Z" fill="#52525B"/>
<path fill-rule="evenodd" clip-rule="evenodd" d="M21.8497 20.5669L27.7063 26.4246L26.6455 27.4852L20.7889 21.6274L21.8497 20.5669Z" fill="#52525B"/>
<path fill-rule="evenodd" clip-rule="evenodd" d="M14.25 24.0347C14.25 18.5118 18.7271 14.0347 24.25 14.0347C29.7728 14.0347 34.25 18.5118 34.25 24.0347C34.25 29.5575 29.7728 34.0347 24.25 34.0347C18.7271 34.0347 14.25 29.5575 14.25 24.0347ZM24.25 15.5347C19.5556 15.5347 15.75 19.3402 15.75 24.0347C15.75 28.7291 19.5556 32.5347 24.25 32.5347C28.9444 32.5347 32.75 28.7291 32.75 24.0347C32.75 19.3402 28.9444 15.5347 24.25 15.5347Z" fill="#52525B"/>

    </symbol>
    <symbol id="icon-telegram" viewBox="0 0 26 26" fill="none">
<path fill-rule="evenodd" clip-rule="evenodd" d="M13.5721 17.9706L11.1759 20.1972C10.8826 20.4707 10.4053 20.2461 10.4323 19.8457C10.5072 18.7142 10.6237 16.9951 10.7017 16.0393C10.7142 15.8885 10.841 15.72 10.9617 15.6108C13.7603 13.0732 16.5652 10.5419 19.3691 8.00842C19.4731 7.91482 19.5958 7.68394 19.5313 7.56226C19.4585 7.42498 19.1226 7.46658 18.9832 7.55394C15.4223 9.79618 11.8613 12.0374 8.30551 14.2869C8.08711 14.4242 7.81983 14.4575 7.57439 14.3784C6.10799 13.9073 4.63327 13.4611 3.16375 12.9973C2.82575 12.8902 2.42431 12.7841 2.38583 12.365C2.34527 11.9271 2.72071 11.7191 3.05975 11.5829C4.42631 11.0317 5.80223 10.5044 7.17607 9.97402C12.1182 8.06978 17.0603 6.16658 22.0023 4.26338C22.1677 4.19994 22.3882 4.16042 22.5608 4.1261C23.0787 4.0221 23.5447 4.2821 23.5956 4.80626C23.6341 5.19002 23.5665 5.61746 23.4864 5.99706C22.4568 10.8944 21.4137 15.7897 20.3716 20.686C20.0908 22.0089 19.4107 22.2595 18.3155 21.4515C16.9043 20.4094 13.5721 17.9706 13.5721 17.9706Z" fill="currentColor"/>


    </symbol>
    <symbol id="icon-linkedin" viewBox="0 0 26 26" fill="none">
<path fill-rule="evenodd" clip-rule="evenodd" d="M18.18 16.4315C18.18 16.8621 17.8306 17.2115 17.4 17.2115C16.9695 17.2115 16.62 16.8621 16.62 16.4315V12.8851C16.62 11.8409 15.7735 10.9923 14.7324 10.9923C13.6914 10.9923 12.8448 11.8409 12.8448 12.8851V16.4315C12.8448 16.8621 12.4954 17.2115 12.0648 17.2115C11.6343 17.2115 11.2848 16.8621 11.2848 16.4315V12.8851C11.2848 10.9809 12.8313 9.43228 14.7324 9.43228C16.6336 9.43228 18.18 10.9809 18.18 12.8851V16.4315ZM8.611 10.4099C8.18044 10.4099 7.79356 10.0188 7.79356 9.58828C7.79356 9.15772 8.18044 8.76668 8.611 8.76668C9.04156 8.76668 9.42636 9.15772 9.42636 9.58828C9.42636 10.0188 9.04156 10.4099 8.611 10.4099ZM9.38996 16.4315C9.38996 16.8621 9.04052 17.2115 8.60996 17.2115C8.1794 17.2115 7.82996 16.8621 7.82996 16.4315V12.5097C7.82996 12.0791 8.1794 11.7297 8.60996 11.7297C9.04052 11.7297 9.38996 12.0791 9.38996 12.5097V16.4315ZM17.3907 3.12988H8.61932C5.33292 3.12988 3.125 5.4418 3.125 8.88108V17.1387C3.125 20.578 5.33292 22.8899 8.61932 22.8899H17.3896C20.676 22.8899 22.885 20.578 22.885 17.1387V8.88108C22.885 5.4418 20.6771 3.12988 17.3907 3.12988Z" fill="currentColor"/>

    </symbol>
    <symbol id="icon-twitter" viewBox="0 0 26 26" fill="none">
<path fill-rule="evenodd" clip-rule="evenodd" d="M22.8039 5.89202C22.6937 5.71938 22.494 5.62266 22.2881 5.65698L20.2049 5.9669C19.6173 5.30962 17.8181 3.63315 15.3357 4.38402C13.186 5.04338 12.1626 7.3293 12.1013 9.07442C9.43572 8.58562 6.94804 7.27314 5.04276 5.33874C4.90652 5.20042 4.70372 5.14946 4.51652 5.2077C4.32932 5.26594 4.19204 5.42402 4.1598 5.61642C3.2082 11.2771 4.43748 15.0554 8.02548 17.4266C6.69324 18.1609 5.16548 18.5384 3.66164 18.4843C3.45572 18.4833 3.26748 18.5925 3.17804 18.7766C3.08756 18.9596 3.1146 19.179 3.24564 19.3371C4.78692 21.1904 7.6906 21.8258 10.0046 21.8258C10.2719 21.8258 10.5308 21.8175 10.7794 21.8019C14.149 21.5918 16.9269 20.2003 18.8124 17.7761C20.5981 15.4808 21.4623 12.3265 21.2449 8.86851L21.2387 8.81754L22.7987 6.45778C22.9121 6.28722 22.9141 6.06466 22.8039 5.89202Z" fill="currentColor"/>
    </symbol>
    <symbol id="icon-instagram" viewBox="0 0 26 26" fill="none">
<path fill-rule="evenodd" clip-rule="evenodd" d="M12.8397 10.4912C11.261 10.4912 9.97656 11.7735 9.97656 13.3512C9.97656 14.9289 11.261 16.2112 12.8397 16.2112C14.4185 16.2112 15.7018 14.9289 15.7018 13.3512C15.7018 11.7735 14.4185 10.4912 12.8397 10.4912Z" fill="currentColor"/>
<path fill-rule="evenodd" clip-rule="evenodd" d="M18.0636 9.27524C17.4708 9.27524 16.9872 8.79476 16.9872 8.20508C16.9872 7.61332 17.4708 7.13284 18.0636 7.13284C18.6564 7.13284 19.1389 7.61332 19.1389 8.20508C19.1389 8.79476 18.6564 9.27524 18.0636 9.27524ZM12.8428 17.7731C10.405 17.7731 8.42068 15.7909 8.42068 13.3531C8.42068 10.9153 10.405 8.93308 12.8428 8.93308C15.2816 8.93308 17.2648 10.9153 17.2648 13.3531C17.2648 15.7909 15.2816 17.7731 12.8428 17.7731ZM17.3907 3.12988H8.61828C5.33292 3.12988 3.125 5.44076 3.125 8.88108V17.1387C3.125 20.578 5.33292 22.8899 8.61828 22.8899H17.3896C20.676 22.8899 22.885 20.578 22.885 17.1387V8.88108C22.885 5.44076 20.6771 3.12988 17.3907 3.12988Z" fill="currentColor"/>

    </symbol>
</svg>